<?xml version="1.0" standalone="no"?>
<!DOCTYPE svg PUBLIC "-//W3C//DTD SVG 20010904//EN"
 "http://www.w3.org/TR/2001/REC-SVG-20010904/DTD/svg10.dtd">
<svg version="1.0" xmlns="http://www.w3.org/2000/svg"
 width="1199.000000pt" height="599.000000pt" viewBox="0 0 1199.000000 599.000000"
 preserveAspectRatio="xMidYMid meet">
<metadata>
Created by potrace 1.15, written by Peter Selinger 2001-2017
</metadata>
<g transform="translate(0.000000,599.000000) scale(0.100000,-0.100000)"
fill="#000000" stroke="none">
<path d="M1603 5279 c-71 -21 -123 -106 -123 -202 l0 -34 -70 -5 c-120 -9
-176 -65 -187 -188 l-6 -57 -68 -5 c-119 -9 -175 -66 -186 -188 l-6 -57 -68
-5 c-83 -6 -136 -37 -165 -95 -18 -37 -19 -88 -22 -1678 -2 -1200 0 -1654 8
-1693 15 -67 59 -114 123 -131 65 -16 3409 -16 3474 0 83 21 133 98 133 203 0
35 1 36 41 36 140 0 219 77 219 214 0 35 1 36 41 36 140 0 219 77 219 214 0
35 1 36 41 36 115 0 189 50 209 142 8 39 10 493 8 1693 -3 1590 -4 1641 -22
1678 -11 22 -37 51 -59 65 l-41 27 -1730 2 c-1059 1 -1744 -2 -1763 -8z m3437
-1794 l0 -1625 -130 0 -130 0 0 -125 0 -125 -130 0 -130 0 0 -125 0 -125 -130
0 -130 0 0 -125 0 -125 -1690 0 -1690 0 0 1625 0 1625 130 0 130 0 0 125 0
125 130 0 130 0 0 125 0 125 130 0 130 0 0 125 0 125 1690 0 1690 0 0 -1625z"/>
<path d="M1660 4735 l0 -125 -130 0 -130 0 0 -125 0 -125 1430 0 1430 0 0
-1375 0 -1375 130 0 130 0 0 125 0 125 130 0 130 0 0 1375 0 1375 -130 0 -130
0 0 125 0 125 -1430 0 -1430 0 0 -125z m2429 -87 c-5 -18 -9 -50 -9 -70 l0
-38 -1129 0 -1130 0 10 32 c5 18 9 50 9 70 l0 38 1129 0 1130 0 -10 -32z m431
-163 l0 -125 -130 0 -130 0 0 125 0 125 130 0 130 0 0 -125z m80 -1364 l0
-1078 -62 -6 c-35 -3 -71 -8 -80 -12 -17 -7 -18 48 -18 1074 l0 1081 48 1 c26
1 58 5 72 9 14 4 28 8 33 9 4 1 7 -484 7 -1078z"/>
<path d="M1140 2735 l0 -1375 1430 0 1430 0 0 1375 0 1375 -1430 0 -1430 0 0
-1375z m2680 0 l0 -1195 -1250 0 -1250 0 0 1195 0 1195 1250 0 1250 0 0 -1195z"/>
<path d="M1863 3779 c-48 -14 -98 -69 -112 -122 -16 -65 -16 -1779 0 -1844 15
-59 63 -107 122 -122 64 -16 1330 -16 1394 0 59 15 107 63 122 122 14 59 14
285 0 344 -15 59 -63 107 -122 122 -31 7 -186 11 -476 11 l-430 0 -3 683 c-3
769 1 731 -81 785 -39 26 -45 27 -211 29 -94 1 -186 -2 -203 -8z m317 -919 l0
-750 520 0 520 0 0 -125 0 -125 -650 0 -650 0 0 875 0 875 130 0 130 0 0 -750z"/>
<path d="M6303 5279 c-71 -21 -123 -106 -123 -202 l0 -34 -70 -5 c-120 -9
-176 -65 -187 -188 l-6 -57 -68 -5 c-119 -9 -175 -66 -186 -188 l-6 -57 -68
-5 c-83 -6 -136 -37 -165 -95 -18 -37 -19 -88 -22 -1678 -2 -1200 0 -1654 8
-1693 15 -67 59 -114 123 -131 65 -16 3409 -16 3474 0 83 21 133 98 133 203 0
35 1 36 41 36 140 0 219 77 219 214 0 35 1 36 41 36 140 0 219 77 219 214 0
35 1 36 41 36 115 0 189 50 209 142 8 39 10 493 8 1693 -3 1590 -4 1641 -22
1678 -11 22 -37 51 -59 65 l-41 27 -1730 2 c-1059 1 -1744 -2 -1763 -8z m3437
-1794 l0 -1625 -130 0 -130 0 0 -125 0 -125 -130 0 -130 0 0 -125 0 -125 -130
0 -130 0 0 -125 0 -125 -1690 0 -1690 0 0 1625 0 1625 130 0 130 0 0 125 0
125 130 0 130 0 0 125 0 125 130 0 130 0 0 125 0 125 1690 0 1690 0 0 -1625z"/>
<path d="M6360 4735 l0 -125 -130 0 -130 0 0 -125 0 -125 1430 0 1430 0 0
-1375 0 -1375 130 0 130 0 0 125 0 125 130 0 130 0 0 1375 0 1375 -130 0 -130
0 0 125 0 125 -1430 0 -1430 0 0 -125z m2429 -87 c-5 -18 -9 -50 -9 -70 l0
-38 -1129 0 -1130 0 10 32 c5 18 9 50 9 70 l0 38 1129 0 1130 0 -10 -32z m431
-163 l0 -125 -130 0 -130 0 0 125 0 125 130 0 130 0 0 -125z m80 -1364 l0
-1078 -62 -6 c-35 -3 -71 -8 -80 -12 -17 -7 -18 48 -18 1074 l0 1081 48 1 c26
1 58 5 72 9 14 4 28 8 33 9 4 1 7 -484 7 -1078z"/>
<path d="M5840 2735 l0 -1375 1430 0 1430 0 0 1375 0 1375 -1430 0 -1430 0 0
-1375z m2680 0 l0 -1195 -1250 0 -1250 0 0 1195 0 1195 1250 0 1250 0 0 -1195z"/>
<path d="M6563 3779 c-48 -14 -98 -69 -112 -122 -8 -33 -11 -296 -11 -922 0
-626 3 -889 11 -922 15 -59 63 -107 122 -122 59 -14 295 -14 354 0 59 15 107
63 122 122 7 29 11 150 11 331 l0 286 210 0 210 0 0 -286 c0 -319 5 -359 55
-409 44 -43 98 -55 255 -55 158 0 211 12 255 56 53 53 57 89 53 529 -3 374 -4
392 -24 430 l-21 40 21 40 c20 37 21 59 24 305 3 177 0 283 -8 318 -20 92 -94
142 -208 142 l-39 0 -6 59 c-7 78 -32 127 -80 159 l-41 27 -560 2 c-332 1
-574 -2 -593 -8z m1097 -294 l0 -125 130 0 130 0 0 -250 0 -250 -130 0 -130 0
0 -125 0 -125 130 0 130 0 0 -375 0 -375 -130 0 -130 0 0 375 0 375 -390 0
-390 0 0 -375 0 -375 -130 0 -130 0 0 875 0 875 520 0 520 0 0 -125z"/>
<path d="M6880 3110 l0 -250 390 0 390 0 0 250 0 250 -390 0 -390 0 0 -250z
m600 0 l0 -70 -210 0 -210 0 0 70 0 70 210 0 210 0 0 -70z"/>
<path d="M10580 3581 c-172 -45 -289 -163 -331 -331 -76 -306 144 -580 466
-580 87 0 211 38 281 86 243 166 259 555 31 735 -66 53 -98 69 -182 90 -86 23
-179 23 -265 0z m283 -175 c114 -55 172 -158 165 -289 -9 -163 -123 -274 -293
-285 -138 -9 -253 52 -310 163 -26 52 -30 68 -29 139 1 112 37 185 121 246 62
45 118 61 209 57 64 -3 93 -9 137 -31z"/>
<path d="M10525 2221 c-107 -31 -186 -86 -249 -175 -49 -68 -71 -124 -88 -226
-10 -60 -9 -78 9 -154 48 -193 190 -308 401 -323 39 -3 72 -8 72 -11 0 -16
-93 -121 -193 -219 -103 -101 -115 -116 -121 -155 -3 -24 -2 -60 3 -80 19 -81
141 -207 222 -228 88 -24 150 11 325 185 126 126 227 263 279 380 14 33 38
107 52 165 70 281 -1 550 -189 714 -141 123 -356 175 -523 127z m308 -178
c295 -139 360 -522 146 -870 -38 -62 -92 -126 -184 -219 -71 -72 -140 -136
-152 -143 -19 -10 -27 -7 -58 20 -19 17 -44 44 -56 60 l-20 28 119 118 c128
127 194 218 237 327 29 75 42 186 28 249 l-8 39 -33 -45 c-50 -70 -123 -102
-232 -102 -75 0 -91 3 -138 29 -64 36 -109 90 -128 153 -19 62 -18 99 6 175
23 74 71 136 137 175 61 35 95 43 188 39 66 -2 93 -8 148 -33z"/>
</g>
</svg>
