<?xml version="1.0" standalone="no"?>
<!DOCTYPE svg PUBLIC "-//W3C//DTD SVG 20010904//EN"
 "http://www.w3.org/TR/2001/REC-SVG-20010904/DTD/svg10.dtd">
<svg version="1.0" xmlns="http://www.w3.org/2000/svg"
 width="3216.000000pt" height="744.000000pt" viewBox="0 0 3216.000000 744.000000"
 preserveAspectRatio="xMidYMid meet">
<metadata>
Created by potrace 1.15, written by Peter Selinger 2001-2017
</metadata>
<g transform="translate(0.000000,744.000000) scale(0.100000,-0.100000)"
fill="#000000" stroke="none">
<path d="M2395 5807 c-91 -27 -137 -76 -162 -175 l-15 -58 -60 -13 c-106 -22
-158 -72 -185 -179 l-15 -58 -60 -13 c-106 -22 -158 -72 -185 -179 l-15 -58
-60 -13 c-104 -21 -157 -71 -184 -174 -21 -80 -16 -3290 5 -3352 18 -55 86
-120 141 -136 65 -20 3433 -21 3498 -1 47 14 106 61 126 101 7 14 19 49 25 77
l12 51 57 13 c70 15 99 30 133 67 34 36 44 56 58 119 l12 51 57 13 c70 15 99
30 133 67 34 36 44 56 58 119 l12 51 57 13 c31 7 69 18 83 26 37 19 86 77 101
121 20 60 24 3272 4 3350 -26 97 -76 148 -168 171 -67 17 -3405 15 -3463 -1z
m3425 -1832 l0 -1625 -130 0 -130 0 0 -125 0 -125 -130 0 -130 0 0 -125 0
-125 -130 0 -130 0 0 -125 0 -125 -1690 0 -1690 0 0 1625 0 1625 130 0 130 0
0 125 0 125 130 0 130 0 0 125 0 125 130 0 130 0 0 125 0 125 1690 0 1690 0 0
-1625z"/>
<path d="M2440 5225 l0 -125 -130 0 -130 0 0 -125 0 -125 1430 0 1430 0 0
-1375 0 -1375 130 0 130 0 0 125 0 125 130 0 130 0 0 1375 0 1375 -130 0 -130
0 0 125 0 125 -1430 0 -1430 0 0 -125z m2386 -117 c-3 -13 -6 -26 -6 -30 0 -5
-488 -8 -1085 -8 -597 0 -1085 3 -1085 8 0 4 3 17 6 30 l6 22 1085 0 1085 0
-6 -22z m474 -133 l0 -125 -130 0 -130 0 0 125 0 125 130 0 130 0 0 -125z m40
-1370 c0 -585 -4 -1035 -9 -1035 -5 0 -23 -3 -40 -6 l-31 -6 0 1035 0 1036 23
4 c12 2 30 5 40 6 16 1 17 -54 17 -1034z"/>
<path d="M1920 3225 l0 -1375 1430 0 1430 0 0 1375 0 1375 -1430 0 -1430 0 0
-1375z m2640 0 l0 -1155 -1210 0 -1210 0 0 1155 0 1155 1210 0 1210 0 0 -1155z"/>
<path d="M2655 4307 c-90 -26 -136 -75 -161 -171 -20 -78 -16 -1789 5 -1851
18 -55 86 -120 141 -136 66 -20 1354 -20 1420 0 59 17 124 82 141 141 9 29 14
96 14 185 0 169 -11 214 -69 271 -67 67 -71 68 -543 72 l-423 3 0 632 c0 514
-3 642 -14 685 -26 96 -76 147 -168 170 -59 15 -290 14 -343 -1z m305 -957 l0
-750 520 0 520 0 0 -125 0 -125 -650 0 -650 0 0 875 0 875 130 0 130 0 0 -750z"/>
<path d="M12615 5807 c-91 -27 -137 -76 -162 -175 l-15 -58 -60 -13 c-106 -22
-158 -72 -185 -179 l-15 -58 -60 -13 c-106 -22 -158 -72 -185 -179 l-15 -58
-60 -13 c-104 -21 -157 -71 -184 -174 -21 -80 -16 -3290 5 -3352 18 -55 86
-120 141 -136 65 -20 3433 -21 3498 -1 47 14 106 61 126 101 7 14 19 49 25 77
l12 51 57 13 c70 15 99 30 133 67 34 36 44 56 58 119 l12 51 57 13 c70 15 99
30 133 67 34 36 44 56 58 119 l12 51 57 13 c31 7 69 18 83 26 37 19 86 77 101
121 20 60 24 3272 4 3350 -26 97 -76 148 -168 171 -67 17 -3405 15 -3463 -1z
m3425 -1832 l0 -1625 -130 0 -130 0 0 -125 0 -125 -130 0 -130 0 0 -125 0
-125 -130 0 -130 0 0 -125 0 -125 -1690 0 -1690 0 0 1625 0 1625 130 0 130 0
0 125 0 125 130 0 130 0 0 125 0 125 130 0 130 0 0 125 0 125 1690 0 1690 0 0
-1625z"/>
<path d="M12660 5225 l0 -125 -130 0 -130 0 0 -125 0 -125 1430 0 1430 0 0
-1375 0 -1375 130 0 130 0 0 125 0 125 130 0 130 0 0 1375 0 1375 -130 0 -130
0 0 125 0 125 -1430 0 -1430 0 0 -125z m2386 -117 c-3 -13 -6 -26 -6 -30 0 -5
-488 -8 -1085 -8 -597 0 -1085 3 -1085 8 0 4 3 17 6 30 l6 22 1085 0 1085 0
-6 -22z m474 -133 l0 -125 -130 0 -130 0 0 125 0 125 130 0 130 0 0 -125z m40
-1370 c0 -585 -4 -1035 -9 -1035 -5 0 -23 -3 -40 -6 l-31 -6 0 1035 0 1036 23
4 c12 2 30 5 40 6 16 1 17 -54 17 -1034z"/>
<path d="M12140 3225 l0 -1375 1430 0 1430 0 0 1375 0 1375 -1430 0 -1430 0 0
-1375z m2640 0 l0 -1155 -1210 0 -1210 0 0 1155 0 1155 1210 0 1210 0 0 -1155z"/>
<path d="M12875 4307 c-90 -26 -136 -75 -161 -171 -20 -78 -16 -1789 5 -1851
18 -55 86 -120 141 -136 61 -19 319 -19 380 0 56 16 123 82 141 136 9 28 14
125 16 318 l4 277 169 0 169 0 4 -277 c4 -314 8 -336 71 -399 58 -58 101 -69
276 -69 175 0 218 11 276 69 68 67 69 78 69 526 0 359 -2 399 -18 440 -10 25
-18 50 -18 55 0 6 8 30 18 55 16 40 18 77 18 315 0 298 -5 331 -57 391 -38 43
-66 58 -140 74 l-56 13 -15 59 c-26 101 -75 153 -169 176 -65 16 -1066 15
-1123 -1z m1085 -332 l0 -125 130 0 130 0 0 -250 0 -250 -130 0 -130 0 0 -125
0 -125 130 0 130 0 0 -375 0 -375 -130 0 -130 0 0 375 0 375 -390 0 -390 0 0
-375 0 -375 -130 0 -130 0 0 875 0 875 520 0 520 0 0 -125z"/>
<path d="M13180 3600 l0 -250 390 0 390 0 0 250 0 250 -390 0 -390 0 0 -250z
m560 0 l0 -30 -170 0 -170 0 0 30 0 30 170 0 170 0 0 -30z"/>
<path d="M30110 4517 c-98 -25 -167 -66 -233 -136 -55 -59 -85 -115 -108 -206
-24 -89 -23 -109 1 -208 45 -177 168 -294 356 -338 86 -20 103 -21 161 -10 95
17 151 39 214 82 107 72 166 164 193 299 14 67 14 83 0 150 -39 195 -163 325
-353 369 -109 26 -124 26 -231 -2z m243 -195 c169 -75 214 -286 93 -429 -100
-118 -325 -117 -435 2 -41 45 -71 121 -71 180 0 90 63 196 141 235 84 43 191
48 272 12z"/>
<path d="M6315 4307 c-90 -26 -136 -75 -161 -171 -12 -47 -14 -176 -12 -808 4
-817 2 -798 60 -864 38 -43 66 -58 140 -74 l57 -13 12 -51 c16 -69 32 -97 73
-134 63 -55 83 -57 526 -57 443 0 463 2 526 57 41 37 57 65 73 134 l12 51 57
13 c74 16 102 31 140 74 58 66 56 47 60 864 3 810 2 822 -49 896 -49 72 -123
96 -299 96 -176 0 -250 -24 -299 -96 -49 -71 -51 -95 -51 -771 l0 -633 -170 0
-170 0 0 633 c0 514 -3 642 -14 685 -26 96 -76 147 -168 170 -59 15 -290 14
-343 -1z m305 -957 l0 -750 390 0 390 0 0 750 0 750 130 0 130 0 0 -750 0
-750 -130 0 -130 0 0 -125 0 -125 -390 0 -390 0 0 125 0 125 -130 0 -130 0 0
750 0 750 130 0 130 0 0 -750z"/>
<path d="M8155 4307 c-129 -38 -175 -125 -175 -332 0 -181 37 -272 127 -316
44 -22 63 -24 221 -27 l172 -4 0 -403 0 -403 -162 -5 c-92 -2 -181 -9 -203
-17 -54 -17 -120 -84 -136 -140 -9 -29 -14 -96 -14 -185 0 -170 11 -214 69
-271 70 -71 51 -69 796 -69 745 0 726 -2 796 69 58 57 69 101 69 271 0 89 -5
156 -14 185 -16 56 -82 123 -136 140 -22 8 -111 15 -202 17 l-163 5 0 403 0
403 163 5 c91 2 180 9 202 17 51 16 119 84 135 135 7 22 15 96 17 165 9 227
-40 324 -179 358 -65 17 -1326 15 -1383 -1z m1345 -332 l0 -125 -260 0 -260 0
0 -625 0 -625 260 0 260 0 0 -125 0 -125 -650 0 -650 0 0 125 0 125 260 0 260
0 0 625 0 625 -260 0 -260 0 0 125 0 125 650 0 650 0 0 -125z"/>
<path d="M10255 4307 c-91 -27 -137 -76 -162 -175 l-15 -59 -56 -13 c-74 -16
-102 -31 -140 -74 -50 -57 -55 -89 -59 -362 -3 -200 -1 -263 11 -309 27 -105
79 -155 184 -176 51 -11 62 -17 67 -37 3 -13 5 -25 3 -26 -2 -2 -30 -8 -63
-15 -77 -17 -105 -32 -143 -75 -46 -53 -57 -102 -57 -261 0 -159 11 -208 57
-261 38 -43 66 -58 140 -74 l57 -13 12 -51 c16 -69 32 -97 73 -134 63 -55 83
-57 526 -57 443 0 463 2 526 57 41 37 57 65 73 134 l12 51 57 13 c74 16 102
31 140 74 52 59 57 94 57 386 0 292 -5 327 -57 386 -38 43 -66 58 -140 74 -47
11 -58 17 -63 38 -3 13 -5 25 -3 26 2 2 30 8 63 15 77 17 105 32 143 75 46 53
57 102 57 261 0 159 -11 208 -57 261 -38 43 -66 58 -140 74 l-56 13 -15 59
c-26 101 -75 153 -169 176 -64 16 -807 15 -863 -1z m825 -332 l0 -125 130 0
130 0 0 -125 0 -125 -130 0 -130 0 0 125 0 125 -390 0 -390 0 0 -250 0 -250
390 0 390 0 0 -125 0 -125 130 0 130 0 0 -250 0 -250 -130 0 -130 0 0 -125 0
-125 -390 0 -390 0 0 125 0 125 -130 0 -130 0 0 125 0 125 130 0 130 0 0 -125
0 -125 390 0 390 0 0 250 0 250 -390 0 -390 0 0 125 0 125 -130 0 -130 0 0
250 0 250 130 0 130 0 0 125 0 125 390 0 390 0 0 -125z m-216 -367 c3 -13 6
-26 6 -30 0 -5 -79 -8 -175 -8 l-175 0 0 30 0 30 169 0 c166 0 169 0 175 -22z
m-4 -758 l0 -30 -170 0 c-93 0 -170 3 -170 8 0 4 -3 17 -6 30 l-6 22 176 0
176 0 0 -30z"/>
<path d="M16535 4307 c-129 -38 -175 -125 -175 -332 0 -181 37 -272 127 -316
44 -22 63 -24 221 -27 l172 -4 0 -403 0 -403 -162 -5 c-92 -2 -181 -9 -203
-17 -54 -17 -120 -84 -136 -140 -9 -29 -14 -96 -14 -185 0 -170 11 -214 69
-271 70 -71 51 -69 796 -69 745 0 726 -2 796 69 58 57 69 101 69 271 0 89 -5
156 -14 185 -16 56 -82 123 -136 140 -22 8 -111 15 -202 17 l-163 5 0 403 0
403 163 5 c91 2 180 9 202 17 51 16 119 84 135 135 7 22 15 96 17 165 9 227
-40 324 -179 358 -65 17 -1326 15 -1383 -1z m1345 -332 l0 -125 -260 0 -260 0
0 -625 0 -625 260 0 260 0 0 -125 0 -125 -650 0 -650 0 0 125 0 125 260 0 260
0 0 625 0 625 -260 0 -260 0 0 125 0 125 650 0 650 0 0 -125z"/>
<path d="M18635 4307 c-91 -27 -137 -76 -162 -175 l-15 -59 -56 -13 c-74 -16
-102 -31 -140 -74 -57 -65 -57 -63 -57 -761 0 -698 0 -696 57 -761 38 -43 66
-58 140 -74 l57 -13 12 -51 c16 -69 32 -97 73 -134 63 -55 83 -57 526 -57 443
0 463 2 526 57 41 37 57 65 73 134 l12 51 57 13 c74 16 102 31 140 74 46 53
57 102 57 261 0 170 -11 214 -69 271 -58 58 -101 69 -276 69 -164 0 -213 -10
-266 -57 -42 -37 -57 -65 -74 -135 l-12 -53 -169 0 -169 0 0 405 0 405 169 0
169 0 12 -52 c17 -71 32 -99 74 -136 53 -47 102 -57 266 -57 175 0 218 11 276
69 58 57 69 101 69 271 0 159 -11 208 -57 261 -38 43 -66 58 -140 74 l-56 13
-15 59 c-26 101 -75 153 -169 176 -64 16 -807 15 -863 -1z m825 -332 l0 -125
130 0 130 0 0 -125 0 -125 -130 0 -130 0 0 125 0 125 -390 0 -390 0 0 -625 0
-625 390 0 390 0 0 125 0 125 130 0 130 0 0 -125 0 -125 -130 0 -130 0 0 -125
0 -125 -390 0 -390 0 0 125 0 125 -130 0 -130 0 0 625 0 625 130 0 130 0 0
125 0 125 390 0 390 0 0 -125z"/>
<path d="M20225 4307 c-90 -26 -136 -75 -161 -171 -20 -78 -16 -1789 5 -1851
18 -55 86 -120 141 -136 61 -19 319 -19 380 0 56 16 123 82 141 136 9 28 14
125 16 318 l4 277 123 0 c68 0 144 3 169 6 l46 7 4 -284 c2 -198 7 -296 16
-324 18 -54 85 -120 141 -136 61 -19 319 -19 380 0 55 16 123 81 141 136 21
62 25 1773 5 1851 -37 143 -113 184 -336 184 -176 0 -250 -24 -299 -96 -43
-63 -51 -121 -51 -396 l0 -258 -170 0 -170 0 0 258 c0 275 -8 333 -51 396 -28
41 -72 70 -131 84 -59 15 -290 14 -343 -1z m305 -582 l0 -375 390 0 390 0 0
375 0 375 130 0 130 0 0 -875 0 -875 -130 0 -130 0 0 375 0 375 -390 0 -390 0
0 -375 0 -375 -130 0 -130 0 0 875 0 875 130 0 130 0 0 -375z"/>
<path d="M22065 4307 c-90 -26 -136 -75 -161 -171 -20 -78 -16 -1789 5 -1851
18 -55 86 -120 141 -136 29 -9 97 -14 195 -14 122 0 158 4 195 19 56 22 64 22
120 0 66 -27 334 -27 400 0 56 22 64 22 120 0 37 -15 73 -19 195 -19 98 0 166
5 195 14 55 16 123 81 141 136 11 32 14 215 17 918 3 945 3 946 -49 1021 -57
84 -113 96 -429 96 -251 0 -320 -7 -367 -38 -20 -12 -26 -12 -45 0 -49 31
-116 38 -375 37 -162 -1 -273 -5 -298 -12z m565 -332 l0 -125 130 0 130 0 0
125 0 125 260 0 260 0 0 -875 0 -875 -130 0 -130 0 0 750 0 750 -130 0 -130 0
0 -750 0 -750 -130 0 -130 0 0 750 0 750 -130 0 -130 0 0 -750 0 -750 -130 0
-130 0 0 875 0 875 260 0 260 0 0 -125z"/>
<path d="M24165 4307 c-91 -27 -137 -76 -162 -175 l-15 -59 -56 -13 c-74 -16
-102 -31 -140 -74 -57 -65 -57 -63 -57 -761 0 -698 0 -696 57 -761 38 -43 66
-58 140 -74 l57 -13 12 -51 c16 -69 32 -97 73 -134 63 -55 83 -57 526 -57 443
0 463 2 526 57 41 37 57 65 73 134 l12 51 57 13 c74 16 102 31 140 74 57 65
57 63 57 761 0 698 0 696 -57 761 -38 43 -66 58 -140 74 l-56 13 -15 59 c-26
101 -75 153 -169 176 -64 16 -807 15 -863 -1z m825 -332 l0 -125 130 0 130 0
0 -625 0 -625 -130 0 -130 0 0 -125 0 -125 -390 0 -390 0 0 125 0 125 -130 0
-130 0 0 625 0 625 130 0 130 0 0 125 0 125 390 0 390 0 0 -125z"/>
<path d="M24210 3225 l0 -625 390 0 390 0 0 625 0 625 -390 0 -390 0 0 -625z
m560 0 l0 -405 -170 0 -170 0 0 405 0 405 170 0 170 0 0 -405z"/>
<path d="M25745 4307 c-90 -26 -136 -75 -161 -171 -20 -78 -16 -1789 5 -1851
18 -55 86 -120 141 -136 60 -18 319 -19 378 -1 47 14 106 61 126 101 8 14 19
52 27 84 12 58 13 59 42 53 16 -3 33 -6 37 -6 5 0 14 -24 20 -52 7 -29 19 -65
26 -79 20 -40 79 -87 126 -101 62 -19 576 -18 638 1 55 16 123 81 141 136 21
62 25 1773 5 1851 -26 98 -76 149 -168 172 -61 15 -275 15 -336 0 -96 -24
-150 -82 -172 -189 l-13 -61 -36 7 c-20 4 -37 8 -38 8 0 1 -8 28 -16 60 -27
101 -76 152 -169 175 -62 16 -548 14 -603 -1z m565 -332 l0 -125 130 0 130 0
0 -625 0 -625 130 0 130 0 0 750 0 750 130 0 130 0 0 -875 0 -875 -260 0 -260
0 0 125 0 125 -130 0 -130 0 0 625 0 625 -130 0 -130 0 0 -750 0 -750 -130 0
-130 0 0 875 0 875 260 0 260 0 0 -125z"/>
<path d="M27585 4307 c-90 -26 -136 -75 -161 -171 -20 -78 -16 -1789 5 -1851
18 -55 86 -120 141 -136 35 -11 159 -14 580 -14 584 0 592 1 656 57 41 37 57
65 73 134 l12 51 57 13 c74 16 102 31 140 74 57 65 57 63 57 761 0 698 0 696
-57 761 -38 43 -66 58 -140 74 l-56 13 -15 59 c-26 101 -75 153 -169 176 -65
16 -1066 15 -1123 -1z m1085 -332 l0 -125 130 0 130 0 0 -625 0 -625 -130 0
-130 0 0 -125 0 -125 -520 0 -520 0 0 875 0 875 520 0 520 0 0 -125z"/>
<path d="M27890 3225 l0 -625 390 0 390 0 0 625 0 625 -390 0 -390 0 0 -625z
m560 0 l0 -405 -170 0 -170 0 0 405 0 405 170 0 170 0 0 -405z"/>
<path d="M30064 3286 c-129 -35 -218 -103 -287 -219 -153 -254 -23 -577 258
-643 41 -10 75 -23 75 -29 0 -7 -51 -61 -113 -121 -101 -97 -114 -114 -124
-157 -19 -86 16 -167 110 -254 63 -59 102 -76 168 -76 75 0 123 28 250 151
191 183 295 351 344 553 22 94 26 130 23 204 -13 255 -141 457 -353 556 -61
28 -191 60 -242 58 -15 0 -64 -10 -109 -23z m260 -196 c69 -26 161 -108 198
-177 47 -87 61 -155 55 -273 -8 -159 -61 -289 -179 -437 -63 -80 -227 -233
-249 -233 -14 0 -99 81 -99 94 0 3 43 47 96 98 170 164 245 293 252 434 3 46
1 95 -2 109 -7 26 -7 26 -59 -29 -88 -92 -197 -109 -317 -48 -74 37 -113 99
-118 187 -9 142 76 260 213 296 46 13 145 2 209 -21z"/>
</g>
</svg>
