<?xml version="1.0" standalone="no"?>
<!DOCTYPE svg PUBLIC "-//W3C//DTD SVG 20010904//EN"
 "http://www.w3.org/TR/2001/REC-SVG-20010904/DTD/svg10.dtd">
<svg version="1.0" xmlns="http://www.w3.org/2000/svg"
 width="3216.000000pt" height="744.000000pt" viewBox="0 0 3216.000000 744.000000"
 preserveAspectRatio="xMidYMid meet">
<metadata>
Created by potrace 1.15, written by Peter Selinger 2001-2017
</metadata>
<g transform="translate(0.000000,744.000000) scale(0.100000,-0.100000)"
fill="#000000" stroke="none">
<path d="M2376 5798 c-58 -16 -119 -83 -134 -148 -7 -28 -12 -60 -12 -69 0
-15 -11 -19 -54 -24 -114 -12 -177 -68 -198 -179 l-12 -66 -52 -5 c-112 -12
-175 -69 -196 -181 -12 -63 -14 -66 -41 -66 -105 0 -193 -66 -215 -160 -17
-75 -17 -3276 0 -3350 17 -72 76 -131 148 -148 75 -17 3405 -17 3480 0 92 21
160 114 160 219 0 13 7 19 24 19 110 0 202 66 224 160 7 28 12 60 12 71 0 13
7 19 24 19 110 0 202 66 224 160 7 28 12 60 12 71 0 13 7 19 24 19 110 0 202
66 224 160 17 74 17 3275 0 3350 -16 70 -75 132 -140 148 -62 16 -3443 15
-3502 0z m3444 -1823 l0 -1625 -130 0 -130 0 0 -125 0 -125 -130 0 -130 0 0
-125 0 -125 -130 0 -130 0 0 -125 0 -125 -1690 0 -1690 0 0 1625 0 1625 130 0
130 0 0 125 0 125 130 0 130 0 0 125 0 125 130 0 130 0 0 125 0 125 1690 0
1690 0 0 -1625z"/>
<path d="M2440 5225 l0 -125 -130 0 -130 0 0 -125 0 -125 1430 0 1430 0 0
-1375 0 -1375 130 0 130 0 0 125 0 125 130 0 130 0 0 1375 0 1375 -130 0 -130
0 0 125 0 125 -1430 0 -1430 0 0 -125z m2396 -101 c-3 -9 -6 -27 -6 -40 l0
-24 -1096 0 c-995 0 -1096 1 -1090 16 3 9 6 27 6 40 l0 24 1096 0 c995 0 1096
-1 1090 -16z m464 -149 l0 -125 -130 0 -130 0 0 125 0 125 130 0 130 0 0 -125z
m50 -1370 l0 -1045 -27 0 c-16 0 -38 -3 -50 -6 l-23 -6 0 1045 0 1046 38 4
c20 2 43 4 50 5 9 2 12 -213 12 -1043z"/>
<path d="M1920 3225 l0 -1375 1430 0 1430 0 0 1375 0 1375 -1430 0 -1430 0 0
-1375z m2650 0 l0 -1165 -1220 0 -1220 0 0 1165 0 1165 1220 0 1220 0 0 -1165z"/>
<path d="M2636 4298 c-58 -16 -119 -83 -134 -148 -17 -74 -17 -1776 0 -1850
17 -72 76 -131 148 -148 73 -17 1327 -17 1400 0 72 17 131 76 148 148 15 67
15 283 0 350 -9 39 -23 63 -54 94 -63 64 -83 66 -560 66 l-414 0 0 644 c0 465
-3 659 -12 696 -16 70 -75 132 -140 148 -57 15 -327 14 -382 0z m324 -948 l0
-750 520 0 520 0 0 -125 0 -125 -650 0 -650 0 0 875 0 875 130 0 130 0 0 -750z"/>
<path d="M12596 5798 c-58 -16 -119 -83 -134 -148 -7 -28 -12 -60 -12 -69 0
-15 -11 -19 -54 -24 -114 -12 -177 -68 -198 -179 l-12 -66 -52 -5 c-112 -12
-175 -69 -196 -181 -12 -63 -14 -66 -41 -66 -105 0 -193 -66 -215 -160 -17
-75 -17 -3276 0 -3350 17 -72 76 -131 148 -148 75 -17 3405 -17 3480 0 92 21
160 114 160 219 0 13 7 19 24 19 110 0 202 66 224 160 7 28 12 60 12 71 0 13
7 19 24 19 110 0 202 66 224 160 7 28 12 60 12 71 0 13 7 19 24 19 110 0 202
66 224 160 17 74 17 3275 0 3350 -16 70 -75 132 -140 148 -62 16 -3443 15
-3502 0z m3444 -1823 l0 -1625 -130 0 -130 0 0 -125 0 -125 -130 0 -130 0 0
-125 0 -125 -130 0 -130 0 0 -125 0 -125 -1690 0 -1690 0 0 1625 0 1625 130 0
130 0 0 125 0 125 130 0 130 0 0 125 0 125 130 0 130 0 0 125 0 125 1690 0
1690 0 0 -1625z"/>
<path d="M12660 5225 l0 -125 -130 0 -130 0 0 -125 0 -125 1430 0 1430 0 0
-1375 0 -1375 130 0 130 0 0 125 0 125 130 0 130 0 0 1375 0 1375 -130 0 -130
0 0 125 0 125 -1430 0 -1430 0 0 -125z m2396 -101 c-3 -9 -6 -27 -6 -40 l0
-24 -1096 0 c-995 0 -1096 1 -1090 16 3 9 6 27 6 40 l0 24 1096 0 c995 0 1096
-1 1090 -16z m464 -149 l0 -125 -130 0 -130 0 0 125 0 125 130 0 130 0 0 -125z
m50 -1370 l0 -1045 -27 0 c-16 0 -38 -3 -50 -6 l-23 -6 0 1045 0 1046 38 4
c20 2 43 4 50 5 9 2 12 -213 12 -1043z"/>
<path d="M12140 3225 l0 -1375 1430 0 1430 0 0 1375 0 1375 -1430 0 -1430 0 0
-1375z m2650 0 l0 -1165 -1220 0 -1220 0 0 1165 0 1165 1220 0 1220 0 0 -1165z"/>
<path d="M12856 4298 c-58 -16 -119 -83 -134 -148 -17 -74 -17 -1776 0 -1850
17 -72 76 -131 148 -148 67 -15 293 -15 360 0 39 9 63 23 94 54 60 60 66 95
66 415 l0 269 180 0 180 0 0 -269 c0 -320 6 -355 66 -415 53 -54 104 -66 274
-66 170 0 221 12 274 66 63 63 66 86 66 520 0 375 -6 451 -36 483 -11 13 -11
17 0 30 28 33 36 111 36 360 0 158 -4 268 -12 301 -21 94 -114 160 -221 160
-20 0 -24 9 -35 66 -15 78 -52 132 -109 160 -36 18 -73 19 -598 21 -366 1
-574 -2 -599 -9z m1104 -323 l0 -125 130 0 130 0 0 -250 0 -250 -130 0 -130 0
0 -125 0 -125 130 0 130 0 0 -375 0 -375 -130 0 -130 0 0 375 0 375 -390 0
-390 0 0 -375 0 -375 -130 0 -130 0 0 875 0 875 520 0 520 0 0 -125z"/>
<path d="M13180 3600 l0 -250 390 0 390 0 0 250 0 250 -390 0 -390 0 0 -250z
m570 0 l0 -40 -180 0 -180 0 0 40 0 40 180 0 180 0 0 -40z"/>
<path d="M30100 4511 c-170 -45 -289 -165 -326 -328 -56 -253 79 -482 321
-543 100 -25 170 -25 262 -1 169 44 282 154 323 317 25 98 25 149 -1 246 -43
160 -164 273 -333 312 -85 20 -163 19 -246 -3z m242 -181 c61 -22 120 -75 151
-134 17 -32 22 -58 22 -121 0 -92 -14 -126 -78 -193 -126 -130 -372 -101 -463
54 -35 60 -44 160 -19 233 47 143 231 220 387 161z"/>
<path d="M6296 4298 c-58 -16 -119 -83 -134 -148 -17 -74 -17 -1526 0 -1600
22 -94 114 -160 224 -160 17 0 24 -6 24 -19 0 -105 68 -198 160 -219 72 -17
808 -17 880 0 92 21 160 114 160 219 0 13 7 19 24 19 110 0 202 66 224 160 17
74 17 1526 0 1600 -16 70 -75 132 -140 148 -26 7 -110 12 -188 12 -78 0 -162
-5 -188 -12 -65 -16 -124 -78 -140 -148 -9 -37 -12 -231 -12 -696 l0 -644
-180 0 -180 0 0 644 c0 465 -3 659 -12 696 -16 70 -75 132 -140 148 -57 15
-327 14 -382 0z m324 -948 l0 -750 390 0 390 0 0 750 0 750 130 0 130 0 0
-750 0 -750 -130 0 -130 0 0 -125 0 -125 -390 0 -390 0 0 125 0 125 -130 0
-130 0 0 750 0 750 130 0 130 0 0 -750z"/>
<path d="M8136 4298 c-58 -16 -119 -83 -134 -148 -16 -67 -15 -284 0 -351 9
-39 23 -65 53 -95 58 -60 97 -69 293 -67 l162 2 0 -415 0 -414 -154 0 c-196 0
-245 -11 -300 -66 -31 -31 -45 -55 -54 -94 -15 -67 -15 -283 0 -350 17 -72 76
-131 148 -148 73 -17 1327 -17 1400 0 72 17 131 76 148 148 15 67 15 283 0
350 -9 39 -23 63 -54 94 -55 55 -104 66 -300 66 l-154 0 0 415 0 415 154 0
c196 0 245 11 300 66 31 31 45 55 54 94 15 67 15 283 0 350 -16 70 -75 132
-140 148 -61 16 -1364 15 -1422 0z m1364 -323 l0 -125 -260 0 -260 0 0 -625 0
-625 260 0 260 0 0 -125 0 -125 -650 0 -650 0 0 125 0 125 260 0 260 0 0 627
0 626 -260 -6 -260 -7 0 130 0 130 650 0 650 0 0 -125z"/>
<path d="M10236 4298 c-58 -16 -119 -83 -134 -148 -7 -28 -12 -60 -12 -71 0
-13 -7 -19 -24 -19 -110 0 -202 -66 -224 -160 -16 -70 -16 -530 0 -600 22 -95
110 -160 217 -160 26 0 31 -4 31 -24 0 -13 3 -31 6 -40 5 -12 -1 -16 -24 -16
-116 0 -208 -63 -230 -160 -15 -67 -15 -283 0 -350 22 -94 114 -160 224 -160
17 0 24 -6 24 -19 0 -105 68 -198 160 -219 72 -17 808 -17 880 0 92 21 160
114 160 219 0 13 7 19 24 19 110 0 202 66 224 160 8 33 12 142 12 300 0 158
-4 267 -12 300 -22 94 -114 160 -224 160 -19 0 -24 5 -24 24 0 13 -3 31 -6 40
-5 12 1 16 24 16 116 0 208 63 230 160 15 67 15 283 0 350 -21 94 -114 160
-221 160 -20 0 -24 9 -35 66 -15 78 -52 132 -109 160 -35 18 -70 19 -468 21
-276 1 -444 -2 -469 -9z m844 -323 l0 -125 130 0 130 0 0 -125 0 -125 -130 0
-130 0 0 125 0 125 -390 0 -390 0 0 -250 0 -250 390 0 390 0 0 -125 0 -125
130 0 130 0 0 -250 0 -250 -130 0 -130 0 0 -125 0 -125 -390 0 -390 0 0 125 0
125 -130 0 -130 0 0 125 0 125 130 0 130 0 0 -125 0 -125 390 0 390 0 0 250 0
250 -390 0 -390 0 0 125 0 125 -130 0 -130 0 0 250 0 250 130 0 130 0 0 125 0
125 390 0 390 0 0 -125z m-210 -359 c0 -13 3 -31 6 -40 5 -14 -14 -16 -180
-16 l-186 0 0 40 0 40 180 0 180 0 0 -24z m0 -766 l0 -40 -180 0 -180 0 0 24
c0 13 -3 31 -6 40 -5 14 14 16 180 16 l186 0 0 -40z"/>
<path d="M16516 4298 c-58 -16 -119 -83 -134 -148 -16 -67 -15 -284 0 -351 9
-39 23 -65 53 -95 58 -60 97 -69 293 -67 l162 2 0 -415 0 -414 -154 0 c-196 0
-245 -11 -300 -66 -53 -53 -66 -104 -66 -269 0 -165 13 -216 66 -269 31 -31
55 -45 94 -54 73 -17 1327 -17 1400 0 72 17 131 76 148 148 15 67 15 283 0
350 -9 39 -23 63 -54 94 -55 55 -104 66 -300 66 l-154 0 0 415 0 415 154 0
c196 0 245 11 300 66 31 31 45 55 54 94 15 67 15 283 0 350 -16 70 -75 132
-140 148 -61 16 -1364 15 -1422 0z m1364 -323 l0 -125 -260 0 -260 0 0 -625 0
-625 260 0 260 0 0 -125 0 -125 -650 0 -650 0 0 125 0 125 260 0 260 0 0 627
0 626 -260 -6 -260 -7 0 130 0 130 650 0 650 0 0 -125z"/>
<path d="M18616 4298 c-58 -16 -119 -83 -134 -148 -7 -28 -12 -60 -12 -71 0
-13 -7 -19 -24 -19 -110 0 -202 -66 -224 -160 -17 -73 -17 -1277 0 -1350 22
-94 114 -160 224 -160 17 0 24 -6 24 -19 0 -105 68 -198 160 -219 72 -17 808
-17 880 0 92 21 160 114 160 219 0 13 7 19 24 19 110 0 202 66 224 160 7 28
12 107 12 175 0 165 -13 216 -66 269 -53 54 -104 66 -274 66 -71 0 -152 -5
-180 -12 -92 -21 -160 -114 -160 -219 0 -18 -9 -19 -180 -19 l-180 0 0 415 0
415 180 0 c171 0 180 -1 180 -19 0 -105 68 -198 160 -219 67 -15 293 -15 360
0 72 17 131 76 148 148 15 67 15 283 0 350 -21 94 -114 160 -221 160 -20 0
-24 9 -35 66 -15 78 -52 132 -109 160 -35 18 -70 19 -468 21 -276 1 -444 -2
-469 -9z m844 -323 l0 -125 130 0 130 0 0 -125 0 -125 -130 0 -130 0 0 125 0
125 -390 0 -390 0 0 -625 0 -625 390 0 390 0 0 125 0 125 130 0 130 0 0 -125
0 -125 -130 0 -130 0 0 -125 0 -125 -390 0 -390 0 0 125 0 125 -130 0 -130 0
0 625 0 625 130 0 130 0 0 125 0 125 390 0 390 0 0 -125z"/>
<path d="M20206 4298 c-58 -16 -119 -83 -134 -148 -17 -74 -17 -1776 0 -1850
17 -72 76 -131 148 -148 67 -15 293 -15 360 0 39 9 63 23 94 54 60 60 66 95
66 415 l0 269 180 0 180 0 0 -269 c0 -320 6 -355 66 -415 53 -54 104 -66 274
-66 170 0 221 12 274 66 31 31 45 55 54 94 17 74 17 1776 0 1850 -16 70 -75
132 -140 148 -26 7 -110 12 -188 12 -178 0 -221 -10 -275 -66 -59 -61 -65 -97
-65 -415 l0 -269 -180 0 -180 0 0 269 c0 174 -4 288 -12 321 -16 70 -75 132
-140 148 -57 15 -327 14 -382 0z m324 -573 l0 -375 390 0 390 0 0 375 0 375
130 0 130 0 0 -875 0 -875 -130 0 -130 0 0 375 0 375 -390 0 -390 0 0 -375 0
-375 -130 0 -130 0 0 875 0 875 130 0 130 0 0 -375z"/>
<path d="M22046 4298 c-58 -16 -119 -83 -134 -148 -17 -74 -17 -1776 0 -1850
9 -39 23 -63 54 -94 53 -54 104 -66 275 -66 135 0 212 12 242 38 15 13 19 13
35 0 30 -26 106 -38 242 -38 136 0 212 12 243 38 15 13 19 13 35 0 29 -26 106
-38 241 -38 171 0 222 12 275 66 31 31 45 55 54 94 17 74 17 1776 0 1850 -9
38 -23 64 -54 95 -60 63 -92 67 -434 63 -254 -3 -289 -5 -322 -22 -37 -18 -39
-18 -75 0 -34 17 -68 19 -338 21 -186 1 -315 -3 -339 -9z m584 -323 l0 -125
130 0 130 0 0 125 0 125 260 0 260 0 0 -875 0 -875 -130 0 -130 0 0 750 0 750
-130 0 -130 0 0 -750 0 -750 -130 0 -130 0 0 750 0 750 -130 0 -130 0 0 -750
0 -750 -130 0 -130 0 0 875 0 875 260 0 260 0 0 -125z"/>
<path d="M24146 4298 c-58 -16 -119 -83 -134 -148 -7 -28 -12 -60 -12 -71 0
-13 -7 -19 -24 -19 -110 0 -202 -66 -224 -160 -17 -73 -17 -1277 0 -1350 22
-94 114 -160 224 -160 17 0 24 -6 24 -19 0 -105 68 -198 160 -219 72 -17 808
-17 880 0 92 21 160 114 160 219 0 13 7 19 24 19 110 0 202 66 224 160 17 73
17 1277 0 1350 -21 94 -114 160 -221 160 -20 0 -24 9 -35 66 -15 78 -52 132
-109 160 -35 18 -70 19 -468 21 -276 1 -444 -2 -469 -9z m844 -323 l0 -125
130 0 130 0 0 -625 0 -625 -130 0 -130 0 0 -125 0 -125 -390 0 -390 0 0 125 0
125 -130 0 -130 0 0 625 0 625 130 0 130 0 0 125 0 125 390 0 390 0 0 -125z"/>
<path d="M24210 3225 l0 -625 390 0 390 0 0 625 0 625 -390 0 -390 0 0 -625z
m570 0 l0 -415 -180 0 -180 0 0 415 0 415 180 0 180 0 0 -415z"/>
<path d="M25726 4298 c-58 -16 -119 -83 -134 -148 -17 -74 -17 -1776 0 -1850
17 -72 76 -131 148 -148 67 -15 293 -15 360 0 95 22 160 114 160 225 0 21 3
24 23 19 12 -3 34 -6 50 -6 20 0 27 -5 27 -19 0 -105 68 -198 160 -219 70 -16
550 -16 620 0 72 17 131 76 148 148 17 74 17 1776 0 1850 -16 70 -75 132 -140
148 -26 7 -110 12 -188 12 -78 0 -162 -5 -188 -12 -87 -22 -152 -118 -152
-225 0 -21 -3 -24 -22 -19 -13 3 -34 6 -48 6 -23 0 -26 5 -38 66 -15 78 -52
132 -109 160 -34 17 -67 19 -338 21 -186 1 -315 -3 -339 -9z m584 -323 l0
-125 130 0 130 0 0 -625 0 -625 130 0 130 0 0 750 0 750 130 0 130 0 0 -875 0
-875 -260 0 -260 0 0 125 0 125 -130 0 -130 0 0 625 0 625 -130 0 -130 0 0
-750 0 -750 -130 0 -130 0 0 875 0 875 260 0 260 0 0 -125z"/>
<path d="M27566 4298 c-58 -16 -119 -83 -134 -148 -17 -74 -17 -1776 0 -1850
17 -72 76 -131 148 -148 73 -17 1067 -17 1140 0 92 21 160 114 160 219 0 13 7
19 24 19 110 0 202 66 224 160 17 73 17 1277 0 1350 -21 94 -114 160 -221 160
-20 0 -24 9 -35 66 -15 78 -52 132 -109 160 -36 18 -73 19 -598 21 -366 1
-574 -2 -599 -9z m1104 -323 l0 -125 130 0 130 0 0 -625 0 -625 -130 0 -130 0
0 -125 0 -125 -520 0 -520 0 0 875 0 875 520 0 520 0 0 -125z"/>
<path d="M27890 3225 l0 -625 390 0 390 0 0 625 0 625 -390 0 -390 0 0 -625z
m570 0 l0 -415 -180 0 -180 0 0 415 0 415 180 0 180 0 0 -415z"/>
<path d="M30039 3276 c-163 -48 -269 -165 -310 -345 -22 -93 -22 -98 -6 -174
37 -181 135 -283 321 -333 l81 -22 -120 -119 c-107 -105 -122 -125 -132 -167
-19 -85 20 -172 116 -259 59 -53 98 -70 162 -70 75 0 123 28 250 151 225 215
342 437 365 686 7 80 -14 212 -47 303 -35 93 -112 196 -187 251 -87 64 -112
77 -209 101 -104 27 -188 26 -284 -3z m259 -174 c152 -48 256 -177 283 -353
10 -62 9 -91 -4 -170 -25 -148 -83 -266 -197 -405 -52 -63 -216 -214 -233
-214 -14 0 -97 89 -97 104 0 8 32 42 70 76 143 127 248 286 271 412 14 78 4
195 -15 164 -52 -88 -138 -131 -246 -123 -143 9 -233 101 -234 237 -1 54 5 77
32 132 67 137 207 190 370 140z"/>
</g>
</svg>
